<!DOCTYPE svg PUBLIC "-//W3C//DTD SVG 1.1//EN" "http://www.w3.org/Graphics/SVG/1.1/DTD/svg11.dtd">
<!-- Uploaded to: SVG Repo, www.svgrepo.com, Transformed by: SVG Repo Mixer Tools -->
<svg height="800px" width="800px" version="1.1" id="Layer_1" xmlns="http://www.w3.org/2000/svg" xmlns:xlink="http://www.w3.org/1999/xlink" viewBox="0 0 512 512" xml:space="preserve" fill="#000000">
<g id="SVGRepo_bgCarrier" stroke-width="0"/>
<g id="SVGRepo_tracerCarrier" stroke-linecap="round" stroke-linejoin="round" stroke="#CCCCCC" stroke-width="19.456"> <path style="fill:#FFFFFF;" d="M256,20C125.872,20,20,125.872,20,256s105.872,236,236,236s236-105.872,236-236S386.128,20,256,20z M156.64,387.712V124.288l246.72,131.72L156.64,387.712z"/> <path style="fill:#ff3333;" d="M512,256C512,114.616,397.384,0,256,0S0,114.616,0,256s114.616,256,256,256S512,397.384,512,256z M256,492C125.872,492,20,386.128,20,256S125.872,20,256,20s236,105.872,236,236S386.128,492,256,492z"/> <polygon style="fill:#cc001b;" points="156.64,387.712 403.36,256.008 156.64,124.288 "/> </g>
<g id="SVGRepo_iconCarrier"> <path style="fill:#FFFFFF;" d="M256,20C125.872,20,20,125.872,20,256s105.872,236,236,236s236-105.872,236-236S386.128,20,256,20z M156.64,387.712V124.288l246.72,131.72L156.64,387.712z"/> <path style="fill:#ff3333;" d="M512,256C512,114.616,397.384,0,256,0S0,114.616,0,256s114.616,256,256,256S512,397.384,512,256z M256,492C125.872,492,20,386.128,20,256S125.872,20,256,20s236,105.872,236,236S386.128,492,256,492z"/> <polygon style="fill:#cc001b;" points="156.64,387.712 403.36,256.008 156.64,124.288 "/> </g>
</svg>